# xmcd
#
# Track frame offsets:
# 180
# 17548
# 29624
# 45896
# 60379
# 71633
# 88506
# 103654
# 117146
# 131696
# 150523
# 166422
# 180971
# 192597
# 210604
# 224899
# 239466
# 256199
# 274045
# 288230
# 300226
# 316569
#
# Disc length: 4433 seconds
#
#
# Revision: 1
# Processed by: cddbd v1.5.1PL2 Copyright (c) Steve Scherf et al.
# Submitted via: FreeRIP 2.945 
#
DISCID=28114f16
DTITLE=Chrystian e Ralf - Dose Dupla
DYEAR=1900
DGENRE=
TTITLE0=Ausencia
TTITLE1=Flexa da Saudade
TTITLE2=Brigas
TTITLE3=Vida Dividida
TTITLE4=Alguem pra mim
TTITLE5=Paixao doce paixao
TTITLE6=Nao importa
TTITLE7=Marcas
TTITLE8=Mito
TTITLE9=Boca louca
TTITLE10=Nos Dois
TTITLE11=Chora Peito
TTITLE12=Cama Fria
TTITLE13=Prece a minha mae
TTITLE14=Sonho Louco
TTITLE15=Deusa do Araguaia
TTITLE16=A morte do carreiro
TTITLE17=Esperando voce chegar
TTITLE18=Apaixonei de novo
TTITLE19=Chega de caprichos
TTITLE20=Tempo ao tempo
TTITLE21=La cautiva
EXTD=
EXTT0=
EXTT1=
EXTT2=
EXTT3=
EXTT4=
EXTT5=
EXTT6=
EXTT7=
EXTT8=
EXTT9=
EXTT10=
EXTT11=
EXTT12=
EXTT13=
EXTT14=
EXTT15=
EXTT16=
EXTT17=
EXTT18=
EXTT19=
EXTT20=
EXTT21=
PLAYORDER=
